<svg xmlns="http://www.w3.org/2000/svg" width="168.257" height="154.292" viewBox="0 0 168.257 154.292">
  <g id="layer1" transform="translate(-17.277 -119.098)">
    <g id="g826" transform="translate(-73.327 -49.137)">
      <path id="path832" d="M151.416,299.532l-22.991-22.994,23.1-23.1,23.1-23.1,23.1,23.1,23.1,23.1-22.991,22.994c-12.645,12.647-23.089,22.994-23.209,22.994s-10.564-10.347-23.209-22.994ZM113.6,238.074,90.6,215.08l23.1-23.1,23.1-23.1,18.59,18.587c10.225,10.223,18.784,18.587,19.02,18.587s8.938-8.51,19.337-18.91l18.907-18.91,23.1,23.1,23.1,23.1L235.548,237.75l-23.314,23.317-18.8-18.8-18.8-18.8-18.8,18.8c-10.343,10.341-18.9,18.8-19.019,18.8S126.24,250.72,113.6,238.074Z" fill="#27dfc9"/>
      <path id="path830" d="M151.416,299.532l-22.991-22.994,23.1-23.1,23.1-23.1,23.1,23.1,23.1,23.1-22.991,22.994c-12.645,12.647-23.089,22.994-23.209,22.994s-10.564-10.347-23.209-22.994ZM113.6,238.074,90.6,215.08l23.1-23.1,23.1-23.1,18.813,18.795,18.813,18.795-4.087,4.087-4.087,4.087,4.3,4.3,4.3,4.3L155.93,242.161c-10.408,10.4-19.018,18.906-19.134,18.906s-10.556-10.347-23.2-22.994Z" fill="#fc4e77"/>
      <path id="path828" d="M151.416,299.532l-22.991-22.994,23.1-23.1,23.1-23.1,23.1,23.1,23.1,23.1-22.991,22.994c-12.645,12.647-23.089,22.994-23.209,22.994s-10.564-10.347-23.209-22.994Zm18.908-80.371-4.5-4.515,4.5-4.4,4.5-4.4-4.287,4.405-4.287,4.405,4.5,4.512a61.24,61.24,0,0,1,4.282,4.512C174.921,223.676,172.8,221.644,170.324,219.161Z" fill="#888"/>
    </g>
  </g>
</svg>
